<svg width="44" height="45" viewBox="0 0 44 45" fill="none" xmlns="http://www.w3.org/2000/svg">
<path fill-rule="evenodd" clip-rule="evenodd" d="M35.2903 0.826674C39.4138 1.53025 42.7482 5.20565 43.2499 9.40085C44.269 17.8648 44.2377 26.3234 43.229 34.7821C42.675 39.4078 38.6769 43.0045 33.7277 43.4613C29.8132 43.8288 25.9092 44.0073 22 44.0021C18.0908 44.0073 14.1868 43.8288 10.2723 43.4613C5.32306 43.0045 1.32498 39.4078 0.770997 34.7821C-0.237668 26.3234 -0.269025 17.8648 0.750092 9.40085C1.25181 5.20565 4.58616 1.53025 8.70966 0.826674C10.3716 0.543144 12.0597 0.406629 13.7425 0.280616C16.4968 0.0758434 19.2458 -0.00816565 22 0.00233549C24.7542 -0.00816565 27.5032 0.0758434 30.2575 0.280616C31.9403 0.406629 33.6284 0.543144 35.2903 0.826674ZM25.5474 9.93473C23.6166 10.1026 21.6754 10.7007 20.5264 11.4772C20.0961 11.771 19.6397 12.2537 19.4613 12.6C19.1622 13.1929 19.157 14.3891 19.456 14.9767C19.7499 15.5591 20.5526 16.2307 21.4498 16.6399C22.3417 17.0544 23.6743 17.4164 24.8915 17.5843C25.7677 17.705 27.4939 17.7417 28.3805 17.6682C31.6387 17.3797 34.0154 16.3356 34.6975 14.8823C34.8129 14.6305 34.8339 14.5098 34.8496 13.9274C34.8758 13.1562 34.7971 12.8151 34.5138 12.3849C33.7006 11.1624 31.4655 10.2285 28.6743 9.95047C28.1812 9.90325 26.0458 9.89276 25.5474 9.93473ZM11.1874 16.5612C12.1423 16.2464 13.0657 16.0628 14.477 15.9107C14.7498 15.8844 17.3941 15.9264 17.7194 15.9631C17.8604 15.9811 17.966 16.1011 17.966 16.2432V19.7879V23.1745C17.966 23.4064 17.7924 23.6015 17.562 23.6284C16.796 23.7071 14.2776 23.6756 13.5851 23.576C10.7939 23.1667 8.78444 22.1804 8.19157 20.9317C8.02368 20.5801 8.02368 20.5644 8.02368 19.7879C8.02368 19.0167 8.02893 18.9957 8.18632 18.6546C8.57982 17.8257 9.67112 17.0649 11.1874 16.5612ZM19.3197 16.8868C19.2252 17.2173 19.241 18.4188 19.3459 18.7021C19.8338 20.0033 21.8538 21.0683 24.6502 21.5038C25.5421 21.6402 27.6513 21.6927 28.6062 21.5983C31.644 21.3097 34.0207 20.2446 34.6608 18.891C34.8339 18.5342 34.8339 18.5237 34.8339 17.742C34.8339 17.2278 34.8077 16.9025 34.7657 16.8081L34.7027 16.6559L34.4876 16.976C33.8056 17.9991 31.964 18.8753 29.7447 19.232C28.2441 19.4734 26.2977 19.5049 24.8916 19.316C23.6481 19.1428 22.3574 18.7913 21.4603 18.3821C20.647 18.0043 19.8391 17.3695 19.5558 16.8868C19.4823 16.7661 19.4141 16.6664 19.4036 16.6664C19.3931 16.6664 19.3564 16.7661 19.3197 16.8868ZM19.2567 21.7556C19.2515 21.3359 19.2777 21.0106 19.3249 20.8479L19.3984 20.5961L19.582 20.8742C20.4057 22.0966 22.4939 22.9938 25.2588 23.3086C26.2032 23.4135 28.4855 23.3873 29.3407 23.2561C31.0563 22.9938 32.5779 22.4849 33.5013 21.8553C33.942 21.5562 34.367 21.1522 34.5296 20.8794C34.6031 20.7535 34.6818 20.6538 34.7027 20.6538C34.8024 20.6538 34.8706 21.2309 34.8549 21.8605C34.8339 22.4534 34.8182 22.5426 34.6818 22.8207C34.0417 24.1323 31.8853 25.1554 29.0626 25.5017C25.2011 25.9739 21.114 25.0085 19.7342 23.3034C19.3512 22.8259 19.262 22.5373 19.2567 21.7556ZM8.04992 22.9777C8.0132 23.1404 7.99221 23.5234 8.0027 23.9064C8.02369 24.4993 8.03943 24.5937 8.1706 24.8665C8.93136 26.4143 11.6491 27.4846 15.2378 27.6577C15.8779 27.6892 17.3627 27.6262 17.7981 27.5475L17.966 27.5161V26.4195V25.323L17.5358 25.3597C17.2945 25.3859 16.4393 25.4017 15.6313 25.3964C14.3983 25.3912 14.0416 25.3754 13.4172 25.281C12.1738 25.0869 10.8411 24.6986 10.0331 24.2946C9.28288 23.9221 8.50113 23.2768 8.28078 22.8518C8.2388 22.7679 8.18109 22.6997 8.15486 22.6997C8.12862 22.6997 8.0814 22.8256 8.04992 22.9777ZM19.2724 26.4145C19.2095 26.0052 19.2409 25.2287 19.3354 24.9611C19.3668 24.872 19.3983 24.7985 19.4088 24.7985C19.4193 24.7985 19.498 24.9139 19.5872 25.0556C20.2588 26.0997 22.1528 26.9968 24.4718 27.3641C28.6848 28.0357 33.2861 26.9654 34.5506 25.0136L34.6975 24.7828L34.7657 24.9349C34.8076 25.0346 34.8339 25.3546 34.8339 25.8741C34.8339 26.6138 34.8234 26.6768 34.6975 26.9496C34.0836 28.2455 32.1266 29.2266 29.3249 29.6359C28.2756 29.7933 25.9618 29.8038 24.944 29.6621C22.6302 29.3368 20.8202 28.6128 19.902 27.6474C19.5295 27.2592 19.3511 26.9076 19.2724 26.4145ZM8.09188 26.745C8.04467 26.8342 8.02368 27.1018 8.02368 27.6842C8.02368 28.4187 8.03417 28.5236 8.14435 28.7545C8.75821 30.0871 10.7939 31.0892 13.7163 31.4932C14.54 31.6086 16.88 31.6244 17.6775 31.5195C17.966 31.4827 18.2074 31.446 18.2179 31.4355C18.2283 31.425 18.1864 31.2571 18.1182 31.0578C18.0342 30.7902 17.9975 30.5226 17.9765 29.9769C17.9555 29.2687 17.9503 29.2529 17.8401 29.2791C17.7824 29.2949 17.2892 29.3369 16.7488 29.3683C15.1801 29.468 13.3857 29.3054 11.9849 28.9434C10.1695 28.4659 8.89986 27.7366 8.2965 26.8237L8.16534 26.6244L8.09188 26.745ZM19.3459 30.7693C19.241 30.486 19.2252 29.2845 19.3197 28.954C19.3564 28.8333 19.3931 28.7336 19.4036 28.7336C19.4141 28.7336 19.4823 28.8333 19.5558 28.954C19.7184 29.2373 20.1958 29.6937 20.6366 29.9876C21.5757 30.6276 23.1602 31.1418 24.9493 31.3936C25.8674 31.5248 28.2704 31.5248 29.1938 31.3936C31.7594 31.0316 33.7478 30.1502 34.4876 29.0432L34.7027 28.7231L34.7657 28.8753C34.7972 28.954 34.8339 29.3212 34.8496 29.6885C34.8759 30.4598 34.8024 30.7955 34.5139 31.231C33.7006 32.4535 31.4656 33.3874 28.6744 33.6654C27.8611 33.7441 26.0248 33.7284 25.2064 33.634C22.1581 33.2877 19.8705 32.1649 19.3459 30.7693Z" fill="#2B962F" fill-opacity="0.5"/>
</svg>
