<svg width="126" height="170" viewBox="0 0 126 170" fill="none" xmlns="http://www.w3.org/2000/svg">
<g clip-path="url(#clip0_80_281)">
<path d="M115.793 134.108C104.383 143.362 90.5806 148.262 75.8407 148.262C69.4008 148.262 63.1797 147.294 57.3026 145.5V128.584C63.1016 133.328 70.5106 136.184 78.5917 136.184C97.1455 136.184 112.229 121.109 112.229 102.602C112.229 87.6525 102.382 74.9501 88.8143 70.6119C91.2527 66.8823 92.6751 62.4349 92.6751 57.6598C92.6751 44.5205 81.968 33.8311 68.8068 33.8311C64.6334 33.8311 60.7101 34.9079 57.3026 36.7961V24.515C63.1641 22.7204 69.3852 21.7529 75.8407 21.7529C90.5649 21.7529 104.383 26.6373 115.793 35.9066C118.466 38.0757 122.405 37.6699 124.593 35.0015C126.766 32.333 126.359 28.4006 123.687 26.2159C110.228 15.2925 93.2378 9.26898 75.8563 9.26898C69.4633 9.26898 63.2579 10.0648 57.3182 11.5629V6.25723C57.3182 2.80854 54.5203 0.0152588 51.0659 0.0152588C47.6115 0.0152588 44.8135 2.80854 44.8135 6.25723V15.9323C18.4287 27.7764 0 54.2736 0 84.9997C0 115.726 18.4287 142.207 44.8135 154.083V163.758C44.8135 167.206 47.6115 170 51.0659 170C54.5203 170 57.3182 167.206 57.3182 163.758V158.452C63.2579 159.95 69.4633 160.746 75.8563 160.746C93.2378 160.746 110.228 154.722 123.687 143.799C126.359 141.63 126.766 137.697 124.593 135.013C122.421 132.345 118.482 131.939 115.793 134.108ZM99.7402 102.586C99.7402 114.228 90.2523 123.684 78.6074 123.684C66.9624 123.684 57.4745 114.212 57.4745 102.586C57.4745 90.9607 66.9624 81.4886 78.6074 81.4886C90.2523 81.4886 99.7402 90.9607 99.7402 102.586ZM68.8225 46.2995C75.0904 46.2995 80.1861 51.3867 80.1861 57.6442C80.1861 63.9018 75.0904 68.989 68.8225 68.989C62.5545 68.989 57.4589 63.9018 57.4589 57.6442C57.4589 51.3867 62.5545 46.2995 68.8225 46.2995ZM12.5047 84.9997C12.5047 61.3738 25.5564 40.7441 44.8135 29.8831V140.116C25.5408 129.255 12.5047 108.626 12.5047 84.9997Z" fill="white"/>
</g>
<defs>
<clipPath id="clip0_80_281">
<rect width="126" height="170" fill="white"/>
</clipPath>
</defs>
</svg>
