<svg width="35" height="35" viewBox="0 0 35 35" fill="none" xmlns="http://www.w3.org/2000/svg">
<g clip-path="url(#clip0_41_181)">
<path d="M34.4057 7.47609C34.0066 4.13898 31.3543 1.21535 28.0742 0.655688C26.7522 0.430151 25.4094 0.321559 24.0708 0.221321C21.8799 0.0584327 19.6932 -0.00839308 17.5023 -3.986e-05C15.3114 -0.00839308 13.1247 0.0584327 10.9338 0.221321C9.59518 0.321559 8.25239 0.430151 6.93038 0.655688C3.6503 1.21535 0.997962 4.13898 0.598865 7.47609C-0.211801 14.2088 -0.186858 20.9373 0.615494 27.6658C1.05616 31.3454 4.23647 34.2064 8.1734 34.5698C11.2872 34.8621 14.3927 35.0041 17.5023 35C20.6119 35.0041 23.7174 34.8621 26.8312 34.5698C30.7681 34.2064 33.9484 31.3454 34.3891 27.6658C35.1915 20.9373 35.2164 14.2088 34.4057 7.47609ZM17.4857 6.87466H17.5065C18.5208 6.87884 19.4521 7.18791 20.2045 7.72251C21.3977 8.55784 22.1667 9.94029 22.1751 11.5483C22.1834 13.1939 21.4184 14.6097 20.2128 15.4576C20.2128 15.4576 20.2128 15.4618 20.2087 15.4576C20.1255 15.5202 20.0382 15.5787 19.9468 15.6288C19.24 16.0549 18.4044 16.2971 17.494 16.2971H17.4857C14.8915 16.2929 12.8171 14.2297 12.7921 11.6276C12.7713 8.9922 14.8583 6.87049 17.4815 6.87049L17.4857 6.87466ZM24.2953 28.1044C23.9918 28.1127 23.68 28.1169 23.3765 28.1169C23.31 28.1169 23.2476 28.1211 23.1811 28.1169C23.0813 28.1211 22.9774 28.1253 22.8776 28.1211C21.7469 28.1294 20.6202 28.1253 19.4895 28.1211H19.4812C18.816 28.1211 18.1508 28.1169 17.4898 28.1169H16.4214C16.0597 28.1169 15.6939 28.1211 15.3322 28.1211C13.8938 28.1211 12.4512 28.1253 11.0128 28.1169C8.80946 28.1002 7.81172 26.8723 8.19834 24.6963C8.21913 24.5793 8.24407 24.4707 8.26486 24.3538C8.3189 24.1324 8.37711 23.9111 8.43531 23.6981C8.50182 23.485 8.5725 23.2762 8.65148 23.0757C8.70553 22.9421 8.76373 22.8126 8.82193 22.6831C8.85935 22.5996 8.89261 22.5202 8.93834 22.4409C8.97575 22.3615 9.01732 22.2822 9.06305 22.207C9.14204 22.0608 9.22934 21.9146 9.32496 21.7768C9.36653 21.7058 9.41226 21.6348 9.46215 21.568C9.55361 21.4343 9.65338 21.3007 9.75316 21.1754C9.88203 21.0167 10.0192 20.8663 10.1606 20.7201C10.41 20.4612 10.6761 20.2273 10.9671 20.0143C11.0336 19.9642 11.1001 19.9182 11.1666 19.8723C11.387 19.7219 11.6156 19.5841 11.8567 19.463C12.0397 19.3711 12.2184 19.2834 12.4097 19.204C12.605 19.1288 12.8004 19.0578 13 18.9952C13.2037 18.9325 13.4074 18.8782 13.6153 18.8365C13.7483 18.8114 13.8813 18.7822 14.0144 18.7655C14.1515 18.7446 14.2887 18.7237 14.4259 18.7112C14.5174 18.6986 14.6172 18.6945 14.7128 18.6903C14.7834 18.6819 14.8541 18.6778 14.9248 18.6778C15.0412 18.6736 15.1534 18.6694 15.274 18.6694H15.3239C16.8164 18.6736 18.3338 18.6151 19.8221 18.7154C19.9509 18.7237 20.0756 18.7321 20.2004 18.7446C20.3376 18.7571 20.4747 18.7696 20.6078 18.7864C20.9279 18.8198 21.2355 18.8657 21.5473 18.92C24.6403 19.4713 26.8063 22.3365 26.9019 25.4815C26.9476 27.0435 25.9706 28.0835 24.3036 28.1086L24.2953 28.1044Z" fill="black" fill-opacity="0.5"/>
</g>
<defs>
<clipPath id="clip0_41_181">
<rect width="35" height="35" fill="white"/>
</clipPath>
</defs>
</svg>
