<svg width="34" height="34" viewBox="0 0 34 34" fill="none" xmlns="http://www.w3.org/2000/svg">
<path fill-rule="evenodd" clip-rule="evenodd" d="M7.37925 0.530757C13.7217 -0.176919 20.2783 -0.176919 26.6207 0.530757C30.1602 0.925678 33.0156 3.70963 33.4312 7.25709C34.1896 13.7303 34.1896 20.2697 33.4312 26.7429C33.0156 30.2904 30.1602 33.0743 26.6207 33.4692C20.2783 34.1769 13.7217 34.1769 7.37925 33.4692C3.83983 33.0743 0.984376 30.2904 0.568775 26.7429C-0.189592 20.2697 -0.189592 13.7303 0.568775 7.25709C0.984376 3.70963 3.83984 0.925678 7.37925 0.530757ZM17 6.6997C17.856 6.6997 18.5499 7.39246 18.5499 8.24702V15.4527H25.7677C26.6237 15.4527 27.3176 16.1454 27.3176 17C27.3176 17.8545 26.6237 18.5473 25.7677 18.5473H18.5499V25.7529C18.5499 26.6075 17.856 27.3003 17 27.3003C16.144 27.3003 15.4501 26.6075 15.4501 25.7529V18.5473H8.23249C7.3765 18.5473 6.68258 17.8545 6.68258 17C6.68258 16.1454 7.3765 15.4527 8.23249 15.4527H15.4501V8.24702C15.4501 7.39246 16.144 6.6997 17 6.6997Z" fill="black" fill-opacity="0.5"/>
</svg>
