<svg width="279" height="77" viewBox="0 0 279 77" fill="none" xmlns="http://www.w3.org/2000/svg">
<path fill-rule="evenodd" clip-rule="evenodd" d="M38.2 0.000433848C59.4 0.000433848 76.5 17.1004 76.5 38.4004C76.5 59.4004 59.2 76.7004 37.9 76.6004C17.3 76.4004 0 59.4004 0 38.3004C0 17.1004 17 -0.0995662 38.2 0.000433848ZM9.1 58.3004C9.1 58.7004 9.3 58.9004 9.5 59.2004C11 61.3004 12.7 63.3004 14.7 65.0004C15.6 65.8004 16.5 66.6004 17.5 67.3004C20.3 69.1004 23.2 70.8004 26.4 71.9004C29 72.8004 31.7 73.5004 34.4 73.8004C36.5 74.0004 38.7 74.1004 40.8 73.8004C42 73.6004 43.3 73.6004 44.5 73.1004C44.7 73.2004 44.8 73.0004 44.9 73.0004C47.4 72.6004 49.8 71.8004 52.2 70.8004C60 67.4004 65.9 61.9004 69.7 54.3004C73.1 47.6004 74.2 40.5004 73.1 33.1004C72.1 26.0004 69.1 19.8004 64.3 14.6004C57.9 7.30043 49.7 3.50044 40 2.90044C35.7 2.60044 31.4 3.20043 27.3 4.60043C20.6 6.80043 15.1 10.6004 10.6 16.1004C5.5 22.4004 3 29.6004 2.7 37.6004C2.6 39.6004 2.8 41.5004 3.1 43.5004C3.7 48.0004 5.2 52.3004 7.5 56.2004C8.1 56.8004 8.5 57.6004 9.1 58.3004Z" fill="#AAADC0"/>
<path fill-rule="evenodd" clip-rule="evenodd" d="M44.5001 73.0002C43.3001 73.6002 42.0001 73.6002 40.8001 73.7002C38.7001 74.0002 36.5001 73.9002 34.4001 73.7002C31.7001 73.4002 29.0001 72.7002 26.4001 71.8002C23.2001 70.7002 20.3001 69.0002 17.5001 67.2002C16.5001 66.5002 15.6001 65.7002 14.7001 64.9002C12.7001 63.2002 11.0001 61.2002 9.5001 59.1002C9.3001 58.8002 9.1001 58.5002 9.1001 58.2002C11.5001 52.8002 12.4001 47.1002 12.9001 41.3002C13.1001 38.6002 13.2001 35.9002 13.7001 33.2002C14.2001 30.1002 15.4001 27.3002 17.6001 24.9002C19.6001 22.8002 22.1001 21.4002 24.8001 20.4002C27.0001 19.5002 29.3001 18.7002 31.8001 18.6002C34.1001 18.5002 36.3001 18.8002 38.5001 19.3002C41.8001 20.1002 45.1001 21.1002 48.2001 22.6002C50.7001 23.6002 53.3001 24.6002 55.9001 25.4002C58.6001 26.2002 61.3001 27.1002 63.6001 28.8002C66.5001 31.0002 67.3001 33.8002 66.0001 37.2002C65.2001 39.3002 63.7001 40.9002 62.2001 42.5002C59.5001 45.3002 56.6001 47.9002 54.0001 50.8002C51.0001 54.3002 48.3001 57.9002 46.4001 62.1002C44.8001 65.6002 43.9001 69.2002 44.5001 73.0002ZM63.8001 40.1002C63.7001 40.1002 63.6001 40.1002 63.5001 40.2002C63.4001 40.2002 63.3001 40.3002 63.3001 40.4002C63.3001 40.4002 63.3001 40.4002 63.3001 40.5002C63.4001 40.5002 63.5001 40.4002 63.5001 40.3002L63.8001 40.1002C64.0001 40.1002 63.9001 40.1002 63.8001 40.1002C63.8001 40.1002 63.9001 40.0002 63.8001 40.1002ZM33.2001 22.7002C29.4001 22.7002 26.3001 25.8002 26.3001 29.5002C26.3001 33.3002 29.4001 36.3002 33.1001 36.4002C36.9001 36.4002 39.9001 33.3002 40.0001 29.5002C40.0001 25.7002 37.0001 22.7002 33.2001 22.7002ZM38.8001 43.7002C39.4001 44.6002 40.5001 45.4002 41.8001 45.8002C44.4001 46.7002 47.0001 46.7002 49.6001 46.2002C54.2001 45.3002 58.5001 43.7002 62.4001 41.1002C62.6001 40.9002 63.0001 40.9002 63.1001 40.5002C62.9001 40.4002 62.8001 40.5002 62.7001 40.6002C61.4001 41.4002 60.0001 42.0002 58.6001 42.6002C55.0001 44.1002 51.2001 45.1002 47.2001 45.3002C44.3001 45.5002 41.4001 45.3002 38.8001 43.7002ZM57.7001 37.8002C58.5001 37.8002 59.2001 37.1002 59.2001 36.2002C59.2001 35.4002 58.5001 34.7002 57.6001 34.8002C56.8001 34.8002 56.2001 35.5002 56.2001 36.3002C56.2001 37.2002 56.8001 37.8002 57.7001 37.8002Z" fill="#A9ACBF"/>
<path fill-rule="evenodd" clip-rule="evenodd" d="M38.4001 19.3003C36.2001 18.9003 34.0001 18.5003 31.7001 18.6003C29.2001 18.7003 27.0001 19.5003 24.7001 20.4003C22.0001 21.4003 19.5001 22.8003 17.5001 24.9003C15.3001 27.2003 14.1001 30.0003 13.6001 33.2003C13.2001 35.9003 13.1001 38.6003 12.8001 41.3003C12.3001 47.1003 11.4001 52.9003 9.00008 58.2003C8.30008 57.6003 7.90008 56.7003 7.50008 56.0003C5.20008 52.1003 3.70009 47.8003 3.10009 43.3003C2.80009 41.3003 2.60009 39.4003 2.70009 37.4003C3.00009 29.4003 5.50009 22.2003 10.6001 15.9003C15.0001 10.4003 20.6001 6.60029 27.3001 4.40029C31.4001 3.10029 35.7001 2.5003 40.0001 2.7003C49.6001 3.3003 57.8001 7.20029 64.3001 14.3003C69.1001 19.6003 72.0001 25.8003 73.1001 32.8003C74.2001 40.2003 73.1001 47.3003 69.7001 54.0003C65.9001 61.6003 60.0001 67.1003 52.2001 70.5003C49.9001 71.5003 47.5001 72.3003 44.9001 72.7003C44.7001 72.7003 44.6001 73.0003 44.5001 72.8003C43.9001 69.0003 44.8001 65.4003 46.3001 61.9003C48.2001 57.7003 50.9001 54.1003 53.9001 50.6003C56.4001 47.7003 59.3001 45.0003 62.1001 42.3003C63.7001 40.7003 65.1001 39.1003 65.9001 37.0003C67.3001 33.6003 66.5001 30.8003 63.5001 28.6003C61.2001 26.9003 58.5001 26.0003 55.8001 25.2003C53.2001 24.4003 50.6001 23.4003 48.1001 22.4003C47.6001 20.7003 46.4001 19.6003 44.8001 19.0003C42.7001 18.5003 40.6001 18.7003 38.4001 19.3003ZM71.1001 40.6003H71.3001C71.7001 39.2003 71.7001 37.7003 71.7001 36.2003C71.7001 34.5003 71.5001 32.8003 71.2001 31.1003C70.1001 25.6003 67.6001 20.8003 63.7001 16.7003C61.3001 14.2003 58.6001 12.1003 55.9001 9.90029C53.5001 7.90029 50.9001 6.40029 47.9001 5.60029C45.0001 4.90029 42.2001 4.50029 39.2001 5.00029C39.0001 5.00029 38.8001 5.0003 38.8001 5.2003C38.8001 5.4003 39.0001 5.40029 39.2001 5.40029C43.6001 6.20029 47.8001 7.6003 51.9001 9.2003C55.9001 10.8003 59.3001 13.1003 61.8001 16.7003C63.5001 19.2003 65.1001 21.8003 66.4001 24.6003C68.1001 28.4003 69.4001 32.3003 70.2001 36.3003C70.6001 37.9003 70.9001 39.2003 71.1001 40.6003Z" fill="#DADEEF"/>
<path fill-rule="evenodd" clip-rule="evenodd" d="M33.2001 22.7002C37.0001 22.7002 40 25.8002 40 29.5002C40 33.3002 36.9 36.3002 33.1 36.4002C29.3 36.4002 26.3 33.3002 26.3 29.5002C26.3 25.7002 29.4001 22.7002 33.2001 22.7002ZM38 29.6002C38 26.9002 35.9001 24.8002 33.2001 24.8002C30.5001 24.8002 28.4 26.9002 28.4 29.6002C28.4 32.2002 30.5 34.4002 33.1 34.4002H33.2001C35.8001 34.4002 37.9 32.3002 38 29.6002Z" fill="#FCFDFB"/>
<path fill-rule="evenodd" clip-rule="evenodd" d="M38.7999 43.7006C41.3999 45.3006 44.2999 45.5006 47.1999 45.4006C51.1999 45.2006 54.9999 44.3006 58.5999 42.7006C59.9999 42.1006 61.3999 41.5006 62.6999 40.7006C62.7999 40.6006 62.8999 40.5006 63.0999 40.6006C62.9999 40.9006 62.6999 41.0006 62.3999 41.2006C58.4999 43.8006 54.1999 45.4006 49.5999 46.3006C46.9999 46.8006 44.2999 46.8006 41.7999 45.9006C40.4999 45.4006 39.2999 44.6006 38.7999 43.7006ZM38.3999 19.3006C40.4999 18.7006 42.6999 18.5006 44.7999 19.3006C46.3999 19.9006 47.5999 21.0006 48.0999 22.7006C45.0999 21.1006 41.7999 20.1006 38.3999 19.3006Z" fill="#7E8295"/>
<path fill-rule="evenodd" clip-rule="evenodd" d="M57.7 37.8003C56.9 37.8003 56.2 37.1003 56.2 36.3003C56.2 35.5003 56.7999 34.8003 57.5999 34.8003C58.3999 34.8003 59.1 35.4003 59.2 36.2003C59.1 37.1003 58.5 37.8003 57.7 37.8003Z" fill="#FCFDFB"/>
<path fill-rule="evenodd" clip-rule="evenodd" d="M63.5 40.3006C63.5 40.4006 63.4 40.5006 63.3 40.5006C63.3 40.3006 63.4 40.2006 63.5 40.3006ZM63.8 40.1006L63.5 40.3006L63.4 40.2006C63.6 40.1006 63.7 40.1006 63.8 40.1006Z" fill="#A9ACBF"/>
<path fill-rule="evenodd" clip-rule="evenodd" d="M71.0999 40.6005C70.7999 39.2005 70.4999 37.9005 70.2999 36.5005C69.4999 32.4005 68.0999 28.5005 66.4999 24.8005C65.2999 22.0005 63.6999 19.4005 61.8999 16.9005C59.3999 13.3005 56.0999 11.0005 51.9999 9.4005C47.7999 7.8005 43.6999 6.30049 39.2999 5.60049C39.0999 5.60049 38.8999 5.6005 38.8999 5.4005C38.8999 5.2005 39.0999 5.2005 39.2999 5.2005C42.1999 4.7005 45.0999 5.0005 47.9999 5.8005C50.9999 6.6005 53.5999 8.20049 55.9999 10.1005C58.6999 12.3005 61.3999 14.4005 63.7999 16.9005C67.6999 21.0005 70.1999 25.8005 71.2999 31.3005C71.5999 33.0005 71.7999 34.7005 71.7999 36.4005C71.7999 37.8005 71.7999 39.3005 71.3999 40.8005L71.0999 40.6005Z" fill="#FFFEFC"/>
<path fill-rule="evenodd" clip-rule="evenodd" d="M37.9999 29.6002C37.9999 32.2002 35.8999 34.4002 33.2999 34.4002H33.1999C30.5999 34.4002 28.3999 32.3002 28.3999 29.6002V29.5002C28.3999 26.8002 30.5999 24.7002 33.1999 24.7002C35.7999 24.7002 37.9999 26.9002 37.9999 29.6002Z" fill="#7E8295"/>
<path fill-rule="evenodd" clip-rule="evenodd" d="M189.7 48.9005C189.6 49.0005 189.5 49.0005 189.4 49.1005C186.3 52.6005 182.4 53.2005 178.2 52.1005C173 50.8005 170.2 47.1005 169.1 42.0005C168.4 38.7005 168.6 35.4005 169.9 32.3005C172.2 26.8005 177.4 23.8005 183.3 24.6005C186 25.0005 188.5 25.9005 190.4 27.9005C191.8 29.4005 192.6 31.2005 192.9 33.2005C193 33.6005 192.8 33.7005 192.5 33.7005C191.3 33.7005 190 33.7005 188.8 33.7005C188.5 33.7005 188.4 33.6005 188.3 33.3005C187.7 30.6005 185.9 29.1005 183.3 28.6005C180.3 28.0005 177.7 28.6005 175.7 31.0005C173.9 33.2005 173.4 35.9005 173.4 38.7005C173.4 40.8005 173.8 42.8005 174.7 44.6005C176.8 48.6005 182 50.0005 185.9 47.7005C188.1 46.4005 188.8 44.3005 189 41.9005C189 41.4005 188.7 41.5005 188.4 41.5005C186.4 41.5005 184.5 41.5005 182.5 41.5005C181.9 41.5005 181.8 41.3005 181.8 40.8005C181.8 40.0005 181.8 39.3005 181.8 38.5005C181.8 38.0005 182 37.9005 182.4 37.9005C185.8 37.9005 189.3 37.9005 192.7 37.9005C193.1 37.9005 193.3 38.0005 193.3 38.4005C193.3 42.8005 193.3 47.1005 193.3 51.5005C193.3 51.9005 193.2 52.0005 192.8 52.0005C192 52.0005 191 52.2005 190.4 51.9005C189.8 51.5005 190 50.5005 189.8 49.7005C189.8 49.4005 189.7 49.1005 189.7 48.9005ZM110.5 33.7005C109.9 33.7005 109.3 33.7005 108.6 33.7005C108.2 33.7005 108.1 33.6005 108 33.2005C107.2 30.4005 105.4 28.7005 102.5 28.4005C99.2999 28.1005 96.5999 29.1005 94.9999 32.0005C92.5999 36.4005 92.6999 40.9005 95.0999 45.2005C96.6999 48.1005 100.2 49.4005 103.4 48.5005C106.2 47.7005 107.5 45.6005 108.1 42.9005C108.3 41.8005 108.3 41.8005 109.4 41.8005C110.4 41.8005 111.4 41.8005 112.4 41.8005C112.8 41.8005 112.9 41.9005 112.8 42.3005C112.3 47.6005 108.9 51.7005 103.7 52.5005C96.1999 53.7005 89.9999 49.1005 88.7999 41.6005C88.2999 38.3005 88.5999 35.1005 89.8999 32.0005C92.1999 26.8005 97.2999 24.0005 103 24.7005C105.7 25.1005 108.2 26.0005 110.2 28.0005C111.6 29.5005 112.4 31.3005 112.7 33.3005C112.8 33.7005 112.7 33.8005 112.3 33.8005C111.8 33.6005 111.1 33.7005 110.5 33.7005ZM257.7 51.9005C256 51.9005 254.5 51.9005 252.9 51.9005C252.5 51.9005 252.3 51.7005 252.2 51.4005C250.5 48.6005 248.7 45.9005 247 43.1005C246.7 42.6005 246.6 42.6005 246.1 43.0005C244.4 44.2005 243.7 45.8005 244 47.9005C244.2 49.0005 244 50.2005 244 51.4005C244 51.9005 243.8 52.0005 243.4 52.0005C242.4 52.0005 241.4 52.0005 240.4 52.0005C239.9 52.0005 239.8 51.8005 239.8 51.3005C239.8 47.2005 239.8 43.1005 239.8 38.9005C239.8 34.6005 239.8 30.3005 239.8 25.9005C239.8 25.2005 240 25.0005 240.7 25.1005C241.6 25.2005 242.5 25.2005 243.4 25.1005C244 25.1005 244.1 25.3005 244.1 25.8005C244.1 30.3005 244.1 34.8005 244.1 39.3005V40.1005L244.3 40.2005C244.6 39.8005 245 39.4005 245.3 39.0005C247.3 36.9005 249.3 34.9005 251.4 32.8005C251.6 32.6005 251.8 32.4005 252.1 32.4005C253.7 32.4005 255.3 32.4005 256.9 32.4005C256.9 32.7005 256.6 32.8005 256.5 33.0005C254.4 35.0005 252.4 37.0005 250.2 39.0005C249.7 39.4005 249.7 39.7005 250.1 40.3005C252.5 43.9005 254.9 47.5005 257.3 51.1005C257.3 51.4005 257.5 51.6005 257.7 51.9005ZM208.3 43.3005C206.1 43.3005 204 43.3005 201.8 43.3005C201.3 43.3005 201.2 43.4005 201.2 43.9005C201.4 47.8005 205 50.2005 208.6 48.7005C209.6 48.3005 210.4 47.5005 210.8 46.4005C211 45.9005 211.3 45.8005 211.7 45.8005C212.6 45.8005 213.6 45.8005 214.5 45.8005C215 45.8005 215.1 45.9005 214.9 46.4005C213.8 49.9005 211.4 51.8005 207.8 52.3005C204.6 52.8005 201.6 52.1005 199.3 49.7005C197.7 48.0005 197 45.8005 196.8 43.5005C196.6 40.7005 197 38.0005 198.8 35.6005C201.1 32.6005 204.2 31.5005 207.8 32.1005C211.6 32.8005 213.9 35.2005 215 38.8005C215.4 40.1005 215.5 41.4005 215.4 42.8005C215.4 43.3005 215.2 43.4005 214.8 43.4005C212.7 43.3005 210.5 43.3005 208.3 43.3005ZM206.2 40.5005C207.7 40.5005 209.2 40.5005 210.6 40.5005C211.1 40.5005 211.2 40.4005 211.1 39.9005C210.7 37.3005 208.8 35.4005 206.3 35.3005C203.7 35.2005 201.6 37.0005 201.2 39.7005C201.1 40.2005 201.2 40.4005 201.8 40.4005C203.3 40.5005 204.7 40.5005 206.2 40.5005ZM115.7 42.2005C115.7 41.0005 115.9 39.7005 116.2 38.5005C117.5 34.3005 121.2 31.7005 125.8 32.0005C129.3 32.2005 132.2 33.4005 133.9 36.5005C135.9 40.3005 135.9 44.3005 133.8 48.0005C131.9 51.5005 128.6 52.6005 124.8 52.4005C119.1 52.1005 115.7 48.2005 115.7 42.2005ZM120 42.2005C120 43.9005 120.3 45.4005 121.3 46.8005C122.9 49.1005 126 49.8005 128.3 48.2005C128.8 47.8005 129.3 47.4005 129.7 46.9005C131.4 44.4005 131.5 40.2005 129.7 37.6005C127.6 34.6005 123.2 34.6005 121.2 37.7005C120.3 39.0005 120 40.6005 120 42.2005ZM258.8 42.3005C258.8 39.5005 259.4 37.0005 261.3 34.9005C263.2 32.7005 265.8 31.9005 268.6 31.9005C271.4 31.9005 274 32.7005 276 34.9005C278.1 37.3005 278.6 40.2005 278.4 43.3005C278.3 44.4005 278.1 45.5005 277.7 46.5005C276.2 50.4005 272.6 52.6005 268 52.3005C262.6 52.0005 259.2 48.5005 258.9 43.1005C258.9 42.9005 258.8 42.5005 258.8 42.3005ZM274.1 42.5005C274.1 40.5005 273.6 38.8005 272.9 37.6005C271.4 35.2005 268.2 34.6005 265.9 36.1005C265.3 36.5005 264.8 37.0005 264.4 37.6005C262.7 40.1005 262.8 44.3005 264.4 46.7005C266 49.0005 269.1 49.7005 271.4 48.1005C272 47.7005 272.4 47.3005 272.8 46.7005C273.8 45.4005 274.1 43.8005 274.1 42.5005ZM151.9 35.2005C153.1 33.7005 154.5 32.6005 156.4 32.1005C158.1 31.7005 159.8 31.8005 161.4 32.5005C163.8 33.5005 164.8 35.6005 164.9 38.1005C165 42.5005 164.9 46.9005 164.9 51.3005C164.9 51.8005 164.8 51.9005 164.3 51.9005C163.3 51.9005 162.3 51.9005 161.3 51.9005C160.8 51.9005 160.6 51.8005 160.6 51.2005C160.6 47.5005 160.6 43.7005 160.6 40.0005C160.6 39.2005 160.5 38.4005 160.3 37.7005C159.7 35.7005 157.8 34.9005 155.5 35.5005C153.5 36.1005 152.2 37.9005 152.2 40.2005C152.2 43.8005 152.2 47.5005 152.2 51.1005C152.2 51.7005 152.1 52.0005 151.4 51.9005C150.5 51.8005 149.5 51.8005 148.6 51.9005C148.1 51.9005 147.9 51.8005 147.9 51.2005C147.9 48.4005 147.9 45.7005 147.9 42.9005C147.9 39.7005 147.9 36.5005 147.9 33.3005C147.9 32.6005 148.1 32.4005 148.8 32.5005C149.7 32.6005 150.5 32.5005 151.4 32.5005C151.9 32.5005 152.1 32.6005 152 33.1005C151.9 33.8005 151.9 34.5005 151.9 35.2005ZM233.9 39.0005C233.8 39.0005 233.7 39.0005 233.6 39.0005C232.5 39.1005 231.8 39.0005 231.3 37.7005C230.1 34.7005 225.3 34.6005 223.3 37.4005C222.6 38.3005 222.3 39.4005 222.1 40.6005C221.9 42.5005 221.9 44.4005 222.7 46.2005C223.7 48.4005 225.5 49.4005 227.8 49.1005C229.7 48.8005 231 47.6005 231.5 45.5005C231.6 44.9005 231.9 44.7005 232.5 44.8005C233.5 44.8005 234.4 44.8005 235.4 44.8005C235.9 44.8005 236 45.0005 235.9 45.4005C234.9 50.2005 231.5 52.9005 226.5 52.6005C221.5 52.3005 218.2 49.0005 217.8 43.9005C217.6 41.7005 217.8 39.5005 218.7 37.4005C220.2 33.9005 223.6 31.9005 227.6 32.1005C230 32.2005 232.2 32.8005 234 34.5005C235.1 35.6005 235.7 37.0005 236 38.5005C236.1 39.0005 235.9 39.2005 235.4 39.1005C235 39.0005 234.5 39.0005 233.9 39.0005ZM143.2 42.3005C143.2 45.2005 143.2 48.1005 143.2 51.0005C143.2 51.8005 143 52.0005 142.3 51.9005C141.4 51.8005 140.6 51.8005 139.7 51.9005C139.1 51.9005 138.9 51.8005 138.9 51.1005C138.9 45.9005 138.9 40.7005 138.9 35.5005C138.9 34.7005 138.9 33.9005 138.9 33.1005C138.9 32.6005 139 32.5005 139.5 32.5005C140.5 32.5005 141.5 32.5005 142.5 32.5005C143.1 32.5005 143.3 32.6005 143.3 33.3005C143.2 36.3005 143.2 39.3005 143.2 42.3005ZM141.2 25.1005C141.8 25.2005 142.7 24.8005 143.1 25.2005C143.5 25.6005 143.2 26.5005 143.2 27.2005C143.2 27.8005 143.5 28.6005 143.1 29.0005C142.7 29.4005 141.9 29.1005 141.3 29.1005C140.5 29.1005 139.5 29.4005 139 29.0005C138.6 28.5005 138.9 27.5005 138.9 26.8005C138.9 25.1005 138.9 25.1005 140.6 25.1005C140.6 25.1005 141.2 25.1005 141.2 25.1005Z" fill="#8D90A3"/>
</svg>
