<svg width="41" height="55" viewBox="0 0 41 55" fill="none" xmlns="http://www.w3.org/2000/svg">
<g clip-path="url(#clip0_41_179)">
<path d="M37.6787 43.3881C33.9658 46.3819 29.4746 47.9672 24.6783 47.9672C22.5828 47.9672 20.5585 47.6542 18.6461 47.0736V41.6008C20.5331 43.1356 22.9439 44.0595 25.5735 44.0595C31.6108 44.0595 36.519 39.1825 36.519 33.1948C36.519 28.3582 33.3147 24.2486 28.8999 22.8451C29.6933 21.6385 30.1562 20.1996 30.1562 18.6547C30.1562 14.4038 26.6721 10.9454 22.3895 10.9454C21.0315 10.9454 19.7549 11.2938 18.6461 11.9047V7.93139C20.5534 7.35079 22.5777 7.03777 24.6783 7.03777C29.4695 7.03777 33.9658 8.618 37.6787 11.6169C38.5484 12.3187 39.8302 12.1874 40.5422 11.3241C41.2492 10.4608 41.117 9.1885 40.2472 8.48169C35.868 4.94763 30.3393 2.99885 24.6834 2.99885C22.6031 2.99885 20.5839 3.25634 18.6512 3.74101V2.02447C18.6512 0.908713 17.7407 0.00500488 16.6167 0.00500488C15.4926 0.00500488 14.5822 0.908713 14.5822 2.02447V5.15463C5.99665 8.98655 0 17.5592 0 27.5C0 37.4408 5.99665 46.0083 14.5822 49.8503V52.9805C14.5822 54.0962 15.4926 55 16.6167 55C17.7407 55 18.6512 54.0962 18.6512 52.9805V51.264C20.5839 51.7486 22.6031 52.0061 24.6834 52.0061C30.3393 52.0061 35.868 50.0573 40.2472 46.5233C41.117 45.8215 41.2492 44.5492 40.5422 43.6809C39.8353 42.8176 38.5535 42.6863 37.6787 43.3881ZM32.4552 33.1898C32.4552 36.9561 29.3678 40.0156 25.5786 40.0156C21.7894 40.0156 18.702 36.951 18.702 33.1898C18.702 29.4285 21.7894 26.364 25.5786 26.364C29.3678 26.364 32.4552 29.4285 32.4552 33.1898ZM22.3946 14.9793C24.4342 14.9793 26.0923 16.6252 26.0923 18.6497C26.0923 20.6742 24.4342 22.32 22.3946 22.32C20.355 22.32 18.6969 20.6742 18.6969 18.6497C18.6969 16.6252 20.355 14.9793 22.3946 14.9793ZM4.06897 27.5C4.06897 19.8563 8.31597 13.182 14.5822 9.66812V45.3318C8.31088 41.8179 4.06897 35.1436 4.06897 27.5Z" fill="white"/>
</g>
<defs>
<clipPath id="clip0_41_179">
<rect width="41" height="55" fill="white"/>
</clipPath>
</defs>
</svg>
