<svg width="26" height="26" viewBox="0 0 26 26" fill="none" xmlns="http://www.w3.org/2000/svg">
<path d="M21.5514 13.8884C22.0039 13.6352 22.2031 13.1611 22.2083 12.7391C22.2134 12.318 22.0249 11.8326 21.559 11.5835L21.2263 11.4055C16.1617 8.69708 10.8821 6.52667 5.45162 4.92099C4.87022 4.74909 4.38626 5.07347 4.15406 5.46047C3.92266 5.84612 3.86736 6.39167 4.16247 6.85895L7.33125 11.8764C7.72415 12.4985 7.71899 13.3803 7.29996 14.0319L4.00647 19.1533C3.71004 19.6142 3.74153 20.1576 3.97252 20.5513C4.20764 20.952 4.70143 21.2575 5.27978 21.0693C10.7502 19.2887 16.0832 16.9484 21.2142 14.0771L21.5514 13.8884Z" fill="black" fill-opacity="0.5"/>
</svg>
